<svg xmlns="http://www.w3.org/2000/svg" width="900" height="112" viewBox="0 0 900 112" role="img" aria-label="Coffee: infinite · Late nights: too many · Favorite language: Python · Obsession: Agentic AI · Dream: build AI products used at scale"><title>Coffee: infinite · Late nights: too many · Favorite language: Python · Obsession: Agentic AI · Dream: build AI products used at scale</title><style>
.m{font-family:ui-monospace,SFMono-Regular,'JetBrains Mono','Cascadia Code',Consolas,'Liberation Mono',Menlo,monospace}
.s{font-family:-apple-system,BlinkMacSystemFont,'Segoe UI',Inter,Helvetica,Arial,sans-serif}
.up{animation:up .7s cubic-bezier(.2,.7,.2,1) both}
.fade{animation:fade .9s ease both}
.blink{animation:blink 1.1s steps(1) infinite}
@keyframes up{from{opacity:0;transform:translateY(10px)}to{opacity:1;transform:translateY(0)}}
@keyframes fade{from{opacity:0}to{opacity:1}}
@keyframes blink{50%{opacity:0}}
@media (prefers-reduced-motion:reduce){.up,.fade,.blink{animation:none}}
</style><defs><pattern id="grid" width="24" height="24" patternUnits="userSpaceOnUse"><path d="M24 0H0V24" fill="none" stroke="#FFFFFF" stroke-opacity=".035"/></pattern></defs><g class="up" style="animation-delay:0.00s"><g transform="translate(0.0 0)"><defs><clipPath id="t0clip"><rect width="170.4" height="112" rx="12"/></clipPath><radialGradient id="t0glow" cx="0" cy="1" r="70%"><stop offset="0" stop-color="#F59E0B" stop-opacity=".22"/><stop offset="1" stop-color="#F59E0B" stop-opacity="0"/></radialGradient></defs><g clip-path="url(#t0clip)"><rect width="170.4" height="112" fill="#0A101F"/><rect width="170.4" height="112" fill="url(#grid)"/><rect width="170.4" height="112" fill="url(#t0glow)"/></g><rect x=".5" y=".5" width="169.4" height="111" rx="11.5" fill="none" stroke="#F59E0B" stroke-opacity=".25"/><rect x="18" y="22" width="18" height="3" rx="1.5" fill="#F59E0B"/><text x="18" y="46" font-size="10" fill="#F59E0B" class="m" font-weight="700" letter-spacing="1.2">COFFEE</text><text x="18" y="76" font-size="17" fill="#F8FAFC" class="s" font-weight="700" >Infinite</text></g></g><g class="up" style="animation-delay:0.10s"><g transform="translate(182.4 0)"><defs><clipPath id="t1clip"><rect width="170.4" height="112" rx="12"/></clipPath><radialGradient id="t1glow" cx="0" cy="1" r="70%"><stop offset="0" stop-color="#A78BFA" stop-opacity=".22"/><stop offset="1" stop-color="#A78BFA" stop-opacity="0"/></radialGradient></defs><g clip-path="url(#t1clip)"><rect width="170.4" height="112" fill="#0A101F"/><rect width="170.4" height="112" fill="url(#grid)"/><rect width="170.4" height="112" fill="url(#t1glow)"/></g><rect x=".5" y=".5" width="169.4" height="111" rx="11.5" fill="none" stroke="#A78BFA" stroke-opacity=".25"/><rect x="18" y="22" width="18" height="3" rx="1.5" fill="#A78BFA"/><text x="18" y="46" font-size="10" fill="#A78BFA" class="m" font-weight="700" letter-spacing="1.2">LATE NIGHTS</text><text x="18" y="76" font-size="17" fill="#F8FAFC" class="s" font-weight="700" >Too Many</text></g></g><g class="up" style="animation-delay:0.20s"><g transform="translate(364.8 0)"><defs><clipPath id="t2clip"><rect width="170.4" height="112" rx="12"/></clipPath><radialGradient id="t2glow" cx="0" cy="1" r="70%"><stop offset="0" stop-color="#22D3EE" stop-opacity=".22"/><stop offset="1" stop-color="#22D3EE" stop-opacity="0"/></radialGradient></defs><g clip-path="url(#t2clip)"><rect width="170.4" height="112" fill="#0A101F"/><rect width="170.4" height="112" fill="url(#grid)"/><rect width="170.4" height="112" fill="url(#t2glow)"/></g><rect x=".5" y=".5" width="169.4" height="111" rx="11.5" fill="none" stroke="#22D3EE" stroke-opacity=".25"/><rect x="18" y="22" width="18" height="3" rx="1.5" fill="#22D3EE"/><text x="18" y="46" font-size="10" fill="#22D3EE" class="m" font-weight="700" letter-spacing="1.2">FAVORITE LANGUAGE</text><text x="18" y="76" font-size="17" fill="#F8FAFC" class="s" font-weight="700" >Python</text></g></g><g class="up" style="animation-delay:0.30s"><g transform="translate(547.2 0)"><defs><clipPath id="t3clip"><rect width="170.4" height="112" rx="12"/></clipPath><radialGradient id="t3glow" cx="0" cy="1" r="70%"><stop offset="0" stop-color="#10B981" stop-opacity=".22"/><stop offset="1" stop-color="#10B981" stop-opacity="0"/></radialGradient></defs><g clip-path="url(#t3clip)"><rect width="170.4" height="112" fill="#0A101F"/><rect width="170.4" height="112" fill="url(#grid)"/><rect width="170.4" height="112" fill="url(#t3glow)"/></g><rect x=".5" y=".5" width="169.4" height="111" rx="11.5" fill="none" stroke="#10B981" stroke-opacity=".25"/><rect x="18" y="22" width="18" height="3" rx="1.5" fill="#10B981"/><text x="18" y="46" font-size="10" fill="#10B981" class="m" font-weight="700" letter-spacing="1.2">CURRENT OBSESSION</text><text x="18" y="76" font-size="17" fill="#F8FAFC" class="s" font-weight="700" >Agentic AI</text></g></g><g class="up" style="animation-delay:0.40s"><g transform="translate(729.6 0)"><defs><clipPath id="t4clip"><rect width="170.4" height="112" rx="12"/></clipPath><radialGradient id="t4glow" cx="0" cy="1" r="70%"><stop offset="0" stop-color="#A78BFA" stop-opacity=".22"/><stop offset="1" stop-color="#A78BFA" stop-opacity="0"/></radialGradient></defs><g clip-path="url(#t4clip)"><rect width="170.4" height="112" fill="#0A101F"/><rect width="170.4" height="112" fill="url(#grid)"/><rect width="170.4" height="112" fill="url(#t4glow)"/></g><rect x=".5" y=".5" width="169.4" height="111" rx="11.5" fill="none" stroke="#A78BFA" stroke-opacity=".25"/><rect x="18" y="22" width="18" height="3" rx="1.5" fill="#A78BFA"/><text x="18" y="46" font-size="10" fill="#A78BFA" class="m" font-weight="700" letter-spacing="1.2">DREAM</text><text x="18" y="68" font-size="14" fill="#F8FAFC" class="s" font-weight="700" >Build AI products</text><text x="18" y="87" font-size="14" fill="#F8FAFC" class="s" font-weight="700" >used at scale</text></g></g></svg>
